<?xml version="1.0" encoding="UTF-8" standalone="no"?>
<!-- Created with Inkscape (http://www.inkscape.org/) -->

<svg
   xmlns:dc="http://purl.org/dc/elements/1.1/"
   xmlns:cc="http://creativecommons.org/ns#"
   xmlns:rdf="http://www.w3.org/1999/02/22-rdf-syntax-ns#"
   xmlns:svg="http://www.w3.org/2000/svg"
   xmlns="http://www.w3.org/2000/svg"
   xmlns:sodipodi="http://sodipodi.sourceforge.net/DTD/sodipodi-0.dtd"
   xmlns:inkscape="http://www.inkscape.org/namespaces/inkscape"
   width="78.21888mm"
   height="56.32497mm"
   viewBox="0 0 277.15351 199.57666"
   id="svg2"
   version="1.1"
   inkscape:version="0.91 r"
   sodipodi:docname="proeminence.svg">
  <defs
     id="defs4">
    <marker
       inkscape:stockid="Arrow1Lend"
       orient="auto"
       refY="0"
       refX="0"
       id="Arrow1Lend"
       style="overflow:visible"
       inkscape:isstock="true">
      <path
         id="path4222"
         d="M 0,0 5,-5 -12.5,0 5,5 0,0 Z"
         style="fill:#0000ff;fill-opacity:1;fill-rule:evenodd;stroke:#0000ff;stroke-width:1pt;stroke-opacity:1"
         transform="matrix(-0.8,0,0,-0.8,-10,0)"
         inkscape:connector-curvature="0" />
    </marker>
    <marker
       inkscape:stockid="Arrow1Lstart"
       orient="auto"
       refY="0"
       refX="0"
       id="marker4495"
       style="overflow:visible"
       inkscape:isstock="true">
      <path
         id="path4497"
         d="M 0,0 5,-5 -12.5,0 5,5 0,0 Z"
         style="fill:#000000;fill-opacity:1;fill-rule:evenodd;stroke:#000000;stroke-width:1pt;stroke-opacity:1"
         transform="matrix(0.8,0,0,0.8,10,0)"
         inkscape:connector-curvature="0" />
    </marker>
    <marker
       inkscape:stockid="Arrow1Lstart"
       orient="auto"
       refY="0"
       refX="0"
       id="Arrow1Lstart"
       style="overflow:visible"
       inkscape:isstock="true">
      <path
         id="path4219"
         d="M 0,0 5,-5 -12.5,0 5,5 0,0 Z"
         style="fill:#0000ff;fill-opacity:1;fill-rule:evenodd;stroke:#0000ff;stroke-width:1pt;stroke-opacity:1"
         transform="matrix(0.8,0,0,0.8,10,0)"
         inkscape:connector-curvature="0" />
    </marker>
  </defs>
  <sodipodi:namedview
     id="base"
     pagecolor="#ffffff"
     bordercolor="#666666"
     borderopacity="1.0"
     inkscape:pageopacity="0.0"
     inkscape:pageshadow="2"
     inkscape:zoom="2.8"
     inkscape:cx="146.84359"
     inkscape:cy="96.045042"
     inkscape:document-units="px"
     inkscape:current-layer="layer1"
     showgrid="false"
     fit-margin-top="0"
     fit-margin-left="0"
     fit-margin-right="0"
     fit-margin-bottom="0"
     inkscape:window-width="1855"
     inkscape:window-height="1056"
     inkscape:window-x="65"
     inkscape:window-y="24"
     inkscape:window-maximized="1" />
  <metadata
     id="metadata7">
    <rdf:RDF>
      <cc:Work
         rdf:about="">
        <dc:format>image/svg+xml</dc:format>
        <dc:type
           rdf:resource="http://purl.org/dc/dcmitype/StillImage" />
        <dc:title></dc:title>
      </cc:Work>
    </rdf:RDF>
  </metadata>
  <g
     inkscape:label="Layer 1"
     inkscape:groupmode="layer"
     id="layer1"
     transform="translate(-163.72346,-358.11881)">
    <path
       style="fill:none;fill-rule:evenodd;stroke:#000000;stroke-width:1px;stroke-linecap:butt;stroke-linejoin:miter;stroke-opacity:1"
       d="m 164.16307,485.73197 c 8.598,-15.86734 7.5966,-37.5284 23.60789,-48.81646 15.1087,-6.25671 21.62966,14.35243 22.83059,25.81284 2.88991,16.16599 1.15637,34.48123 11.54169,48.26397 14.09832,10.79153 22.53909,-11.32337 23.89049,-22.2744 5.91061,-14.7975 25.82661,-11.40479 26.22301,4.2744 3.84659,13.11842 2.46166,28.72291 11.50193,39.70243 17.10545,7.4812 16.68919,-19.94003 16.47337,-30.72008 1.70653,-11.52183 0.97337,-28.29909 12.62273,-33.86556 12.58895,-2.35581 17.39036,13.00632 17.79067,22.8983 -1.85219,8.46393 1.98444,32.51401 14.01003,22.97952 6.24756,-13.67678 1.1942,-29.36794 3.56025,-43.85132 1.82783,-28.68976 8.89115,-57.72589 24.81911,-81.98504 9.64108,-9.47762 21.13207,2.26093 23.55964,12.20212 8.41914,25.19913 14.40416,51.23856 16.97809,77.73258 5.33371,25.94735 9.58372,53.15934 24.71391,75.56838 0.72671,1.26129 1.44687,2.52639 2.15333,3.79915"
       id="path4165"
       inkscape:connector-curvature="0" />
    <text
       xml:space="preserve"
       style="font-style:normal;font-weight:normal;font-size:15.51810932px;line-height:125%;font-family:sans-serif;letter-spacing:0px;word-spacing:0px;fill:#000000;fill-opacity:1;stroke:none;stroke-width:1px;stroke-linecap:butt;stroke-linejoin:miter;stroke-opacity:1"
       x="255.56923"
       y="474.62027"
       id="text4172"
       sodipodi:linespacing="125%"><tspan
         sodipodi:role="line"
         id="tspan4174"
         x="255.56923"
         y="474.62027">P</tspan></text>
    <text
       xml:space="preserve"
       style="font-style:normal;font-weight:normal;font-size:15.51810932px;line-height:125%;font-family:sans-serif;letter-spacing:0px;word-spacing:0px;fill:#000000;fill-opacity:1;stroke:none;stroke-width:1px;stroke-linecap:butt;stroke-linejoin:miter;stroke-opacity:1"
       x="186.24593"
       y="429.01004"
       id="text4176"
       sodipodi:linespacing="125%"><tspan
         sodipodi:role="line"
         id="tspan4178"
         x="186.24593"
         y="429.01004">Q</tspan></text>
    <text
       xml:space="preserve"
       style="font-style:normal;font-weight:normal;font-size:15.51810932px;line-height:125%;font-family:sans-serif;letter-spacing:0px;word-spacing:0px;fill:#000000;fill-opacity:1;stroke:none;stroke-width:1px;stroke-linecap:butt;stroke-linejoin:miter;stroke-opacity:1"
       x="308.38315"
       y="458.16068"
       id="text4176-3"
       sodipodi:linespacing="125%"><tspan
         sodipodi:role="line"
         id="tspan4178-6"
         x="308.38315"
         y="458.16068">Q'</tspan></text>
    <text
       xml:space="preserve"
       style="font-style:normal;font-weight:normal;font-size:15.51810932px;line-height:125%;font-family:sans-serif;letter-spacing:0px;word-spacing:0px;fill:#000000;fill-opacity:1;stroke:none;stroke-width:1px;stroke-linecap:butt;stroke-linejoin:miter;stroke-opacity:1"
       x="369.3186"
       y="369.63614"
       id="text4198"
       sodipodi:linespacing="125%"><tspan
         sodipodi:role="line"
         id="tspan4200"
         x="369.3186"
         y="369.63614">Q''</tspan></text>
    <path
       style="fill:none;fill-rule:evenodd;stroke:#ff002f;stroke-width:1.03309619px;stroke-linecap:butt;stroke-linejoin:miter;stroke-opacity:1"
       d="m 192.96433,436.07582 c -0.46017,13.78207 0.85172,23.7338 2.84936,37.51637 1.20469,10.63177 3.89016,9.89983 7.49159,19.79392 4.99548,9.30764 6.98443,19.98782 26.22954,20.91479 7.5672,-0.32467 17.40345,0.35117 22.9701,-6.17597 7.0171,-6.7349 6.45609,-17.2749 7.1297,-26.35358 0.0121,-0.96371 0.005,-1.92772 -0.024,-2.89107"
       id="path4202"
       inkscape:connector-curvature="0"
       sodipodi:nodetypes="ccccccc" />
    <path
       style="fill:#0000ff;fill-opacity:1;fill-rule:evenodd;stroke:#0000ff;stroke-width:0.60553163px;stroke-linecap:butt;stroke-linejoin:miter;stroke-opacity:1;marker-start:url(#Arrow1Lstart);marker-end:url(#Arrow1Lend)"
       d="M 230.351,479.40379 C 230.04516,513.352 230.04516,513.352 230.04516,513.352"
       id="path4213"
       inkscape:connector-curvature="0" />
  </g>
</svg>
